<svg xmlns="http://www.w3.org/2000/svg" fill="none" version="1.1" viewBox="0 0 192.815 55.545"><defs><linearGradient id="d" x1="0" x2="1" y1="0" y2="0" gradientTransform="matrix(0 -92.4114 -92.4114 0 249.996 345.74)" gradientUnits="userSpaceOnUse" spreadMethod="pad"><stop offset="0" stop-color="#fdc400" stop-opacity="1"/><stop offset=".107" stop-color="#fdc400" stop-opacity="1"/><stop offset="1" stop-color="#ff2e25" stop-opacity="1"/></linearGradient><linearGradient id="e" x1="0" x2="1" y1="0" y2="0" gradientTransform="matrix(99.54916 0 0 -99.54916 200.225 270.715)" gradientUnits="userSpaceOnUse" spreadMethod="pad"><stop offset="0" stop-color="#31d5f1" stop-opacity="1"/><stop offset=".107" stop-color="#31d5f1" stop-opacity="1"/><stop offset="1" stop-color="#0069c6" stop-opacity="1"/></linearGradient><linearGradient id="g" x1="0" x2="1" y1="0" y2="0" gradientTransform="scale(56.2099 -56.2099) rotate(45.591 9.773 1.095)" gradientUnits="userSpaceOnUse" spreadMethod="pad"><stop offset="0" stop-color="#fdc400" stop-opacity="1"/><stop offset=".107" stop-color="#fdc400" stop-opacity="1"/><stop offset="1" stop-color="#ff2e25" stop-opacity="1"/></linearGradient><linearGradient id="h" x1="0" x2="1" y1="0" y2="0" gradientTransform="scale(26.21127 -26.21127) rotate(83.042 12.805 -1.66)" gradientUnits="userSpaceOnUse" spreadMethod="pad"><stop offset="0" stop-color="#fdc400" stop-opacity="1"/><stop offset=".107" stop-color="#fdc400" stop-opacity="1"/><stop offset="1" stop-color="#ff2e25" stop-opacity="1"/></linearGradient><linearGradient id="i" x1="0" x2="1" y1="0" y2="0" gradientTransform="scale(83.34674) rotate(-90 3.768 .54)" gradientUnits="userSpaceOnUse" spreadMethod="pad"><stop offset="0" stop-color="#fdc400" stop-opacity="1"/><stop offset=".107" stop-color="#fdc400" stop-opacity="1"/><stop offset="1" stop-color="#ff2e25" stop-opacity="1"/></linearGradient><linearGradient id="j" x1="0" x2="1" y1="0" y2="0" gradientTransform="scale(-52.00653 52.00653) rotate(-72.422 2.051 6.884)" gradientUnits="userSpaceOnUse" spreadMethod="pad"><stop offset="0" stop-color="#fdc400" stop-opacity="1"/><stop offset=".107" stop-color="#fdc400" stop-opacity="1"/><stop offset="1" stop-color="#ff2e25" stop-opacity="1"/></linearGradient><linearGradient id="k" x1="0" x2="1" y1="0" y2="0" gradientTransform="scale(-51.09777 51.09777) rotate(-72.422 2.464 6.715)" gradientUnits="userSpaceOnUse" spreadMethod="pad"><stop offset="0" stop-color="#fdc400" stop-opacity="1"/><stop offset=".107" stop-color="#fdc400" stop-opacity="1"/><stop offset="1" stop-color="#f3d791" stop-opacity="1"/></linearGradient><linearGradient id="l" x1="0" x2="1" y1="0" y2="0" gradientTransform="scale(34.45874 -34.45874) rotate(49.904 14.993 .928)" gradientUnits="userSpaceOnUse" spreadMethod="pad"><stop offset="0" stop-color="#fdc400" stop-opacity="1"/><stop offset=".107" stop-color="#fdc400" stop-opacity="1"/><stop offset="1" stop-color="#ff2e25" stop-opacity="1"/></linearGradient><linearGradient id="m" x1="0" x2="1" y1="0" y2="0" gradientTransform="scale(20.98925 -20.98925) rotate(82.898 16.268 -2.23)" gradientUnits="userSpaceOnUse" spreadMethod="pad"><stop offset="0" stop-color="#fdc400" stop-opacity="1"/><stop offset=".107" stop-color="#fdc400" stop-opacity="1"/><stop offset="1" stop-color="#ff2e25" stop-opacity="1"/></linearGradient><linearGradient id="n" x1="0" x2="1" y1="0" y2="0" gradientTransform="scale(-10.16002 10.16002) rotate(-72.422 13.227 33.02)" gradientUnits="userSpaceOnUse" spreadMethod="pad"><stop offset="0" stop-color="#fdc400" stop-opacity="1"/><stop offset=".107" stop-color="#fdc400" stop-opacity="1"/><stop offset="1" stop-color="#f3d791" stop-opacity="1"/></linearGradient><linearGradient id="o" x1="0" x2="1" y1="0" y2="0" gradientTransform="scale(-20.50981 20.50981) rotate(-72.422 6.676 17.835)" gradientUnits="userSpaceOnUse" spreadMethod="pad"><stop offset="0" stop-color="#fdc400" stop-opacity="1"/><stop offset=".107" stop-color="#fdc400" stop-opacity="1"/><stop offset="1" stop-color="#f3d791" stop-opacity="1"/></linearGradient><linearGradient id="a" x1="0" x2="1" y1="0" y2="0" gradientTransform="scale(43.41063 -43.41063) rotate(-19.29 -14.88 -20.547)" gradientUnits="userSpaceOnUse" spreadMethod="pad"><stop offset="0" stop-color="#fff" stop-opacity="1"/><stop offset=".107" stop-color="#fff" stop-opacity="1"/><stop offset="1" stop-color="#fff" stop-opacity="0"/></linearGradient><linearGradient id="r" x1="0" x2="1" y1="0" y2="0" gradientTransform="scale(43.41063 -43.41063) rotate(-19.29 -14.88 -20.547)" gradientUnits="userSpaceOnUse" spreadMethod="pad"><stop offset="0" stop-color="#006de4" stop-opacity="1"/><stop offset=".107" stop-color="#006de4" stop-opacity="1"/><stop offset="1" stop-color="#0079ff" stop-opacity="1"/></linearGradient><linearGradient id="b" x1="0" x2="1" y1="0" y2="0" gradientTransform="scale(33.7015 -33.7015) rotate(24.8 21.321 13.198)" gradientUnits="userSpaceOnUse" spreadMethod="pad"><stop offset="0" stop-color="#fff" stop-opacity="1"/><stop offset=".107" stop-color="#fff" stop-opacity="1"/><stop offset="1" stop-color="#fff" stop-opacity="0"/></linearGradient><linearGradient id="u" x1="0" x2="1" y1="0" y2="0" gradientTransform="scale(33.7015 -33.7015) rotate(24.8 21.321 13.198)" gradientUnits="userSpaceOnUse" spreadMethod="pad"><stop offset="0" stop-color="#0044b1" stop-opacity="1"/><stop offset=".107" stop-color="#0044b1" stop-opacity="1"/><stop offset="1" stop-color="#0044b1" stop-opacity="1"/></linearGradient><clipPath id="f" clipPathUnits="userSpaceOnUse"><path d="M0 500h500V0H0Z"/></clipPath><clipPath id="p" clipPathUnits="userSpaceOnUse"/><clipPath id="s" clipPathUnits="userSpaceOnUse"/><clipPath id="v" clipPathUnits="userSpaceOnUse"><path d="M-45.474 8.75h348v-112h-348Z"/></clipPath><clipPath id="w" clipPathUnits="userSpaceOnUse"><path d="M-73.742 11.383h348v-112h-348Z"/></clipPath><clipPath id="x" clipPathUnits="userSpaceOnUse"><path d="M-94.498 24.271h348v-112h-348Z"/></clipPath><clipPath id="c" clipPathUnits="userSpaceOnUse"><path d="M-416.516 235.517h500v-500h-500z"/></clipPath><mask id="q" width="1" height="1" x="0" y="0" maskUnits="userSpaceOnUse"><path fill="url(#a)" stroke="none" d="M-32768 32767h65535v-65535h-65535Z"/></mask><mask id="t" width="1" height="1" x="0" y="0" maskUnits="userSpaceOnUse"><path fill="url(#b)" stroke="none" d="M-32768 32767h65535v-65535h-65535Z"/></mask></defs><g stroke="#f8af3a" stroke-dasharray="none" stroke-opacity="1" stroke-width="4.601" clip-path="url(#c)" opacity="1" transform="matrix(.26406 0 0 -.26406 40.2 52.913)"><path fill="#1c1c1b" fill-opacity="1" fill-rule="nonzero" stroke="#f8af3a" stroke-dasharray="none" stroke-opacity="1" stroke-width="4.601" d="M0 0h-109.458c-22.355 0-40.477 18.122-40.477 40.478v109.457c0 22.355 18.122 40.478 40.477 40.478H0c22.355 0 40.478-18.123 40.478-40.478V40.478C40.478 18.122 22.355 0 0 0"/></g><path fill="url(#d)" d="M245.968 346.68c-20.897-1.68-38.138-16.233-43.825-35.729 1.245-1.819 2.819-3.548 4.695-5.154 8.506-7.359 23.068-12.391 39.827-12.98a73.457 73.457 0 0 1 3.334-.066c21.888 0 40.564 7.564 47.85 18.2-5.433 18.635-21.438 32.771-41.097 35.426a49.56 49.56 0 0 1-6.753.459c-1.36 0-2.703-.058-4.031-.156" transform="matrix(.18746 0 0 -.18746 -12.214 86.921)"/><path fill="url(#e)" d="M249.999 263.791c-1.966 0-3.9.082-5.809.254-21.577 1.892-39.089 14.185-43.965 30.254 1.393-26.288 23.142-47.168 49.774-47.168 1.403 0 2.795.058 4.172.181 24.699 2.039 44.284 22.084 45.604 46.987-5.311-17.487-25.576-30.508-49.776-30.508" transform="matrix(.18746 0 0 -.18746 -12.214 86.921)"/><g clip-path="url(#f)" transform="matrix(.18746 0 0 -.18746 -12.214 86.921)"><path fill="#fff" fill-opacity="1" fill-rule="nonzero" d="M242.015 273.046a24.73 24.73 0 0 1-15.065 13.2l-3.988 1.243s-1.127-14.648 19.053-14.443M257.983 273.046a24.73 24.73 0 0 0 15.065 13.2l3.988 1.243s1.127-14.648-19.053-14.443"/></g><path fill="url(#g)" d="M209.616 367.232c.188-.475.336-.942.442-1.385 0 0 .009-.008.017-.032.124-.509.205-1 .246-1.467.467-5.392-4.286-8.031-4.286-8.031s14.119-7.006 24.322-3.081c5.155 1.982 7.924-.664 9.375-4.139.024.008.057.008.082.017l.139.025c2.884.565 5.834.893 8.834.958-1.607 5.18-5.335 11.481-13.947 14.095-15.776 4.777-21.7 7.367-22.2 14.734 0 0-5.9-4.343-3.024-11.694" transform="matrix(.18746 0 0 -.18746 -12.214 86.921)"/><path fill="url(#h)" d="m244.403 384.663.008-.008c.008 0 .016 0 .025-.009 0 0 .008 0 .016-.009.025-.007.049-.024.09-.04.057-.033.131-.066.221-.114 1-.566 3.656-2.459 2.647-6.376-1.228-4.778-8.473-8.875-3.146-13.382 3.753-3.18 7.039-2.557 9.079-4.647.852-.86 1.492-2.212 1.852-4.507.328-2.056.229-3.99-.082-5.711.885-.09 1.77-.197 2.647-.328a51.67 51.67 0 0 0 5.286-1.066c.721 3.303.811 6.941.065 10.252-1.5 6.686-10.784 8.465-7.507 12.014 3.172 3.441 4.295 7.785 4.361 8.047-.164-.107-4.942-3.311-6.688 1.656-.991 2.826-3.654 3.809-5.801 4.138a13.91 13.91 0 0 1-1.967.138c-.676 0-1.106-.048-1.106-.048" transform="matrix(.18746 0 0 -.18746 -12.214 86.921)"/><path fill="url(#i)" d="m245.968 346.68-.082-.016s11.063-5.294 12.095-16.906c1.033-11.604-17.676-15.431-17.676-15.431s15.84-5.466 24.445-1.909c7.531 3.106 5.449-15.037-18.085-19.601a73.457 73.457 0 0 1 3.334-.066c5.614 0 11.014.5 16.071 1.426 14.652 2.655 26.362 8.866 31.779 16.774-4.967 17.053-18.782 30.329-36.156 34.5a49.527 49.527 0 0 1-11.694 1.385c-1.36 0-2.703-.058-4.031-.156" transform="matrix(.18746 0 0 -.18746 -12.214 86.921)"/><path fill="url(#j)" d="m245.968 346.68-.082-.016s11.063-5.294 12.095-16.906c1.033-11.604-17.676-15.431-17.676-15.431s15.84-5.466 24.445-1.909c7.531 3.106 5.449-15.037-18.085-19.601a73.457 73.457 0 0 1 3.334-.066c5.614 0 11.014.5 16.071 1.426-1.533 1.09-1.729 2.647.967 4.892 8.506 7.064 7.482 25.6 2.04 19.454-5.441-6.147-18.118-4.196-18.118-4.196s4.195.41 9.112 6.868c4.917 6.448-.819 16.176-2.557 20.584-.926 2.352 1.606 3.303 4.179 3.672a49.527 49.527 0 0 1-11.694 1.385c-1.36 0-2.703-.058-4.031-.156" transform="matrix(.18746 0 0 -.18746 -12.214 86.921)"/><path fill="url(#k)" d="M245.968 346.68c-20.897-1.68-38.138-16.233-43.825-35.729 1.245-1.819 2.819-3.548 4.695-5.154 1.336 6.129 4.819 16.422 13.939 26.149 13.808 14.742 34.827 14.455 35.975 14.431a49.56 49.56 0 0 1-6.753.459c-1.36 0-2.703-.058-4.031-.156" transform="matrix(.18746 0 0 -.18746 -12.214 86.921)"/><path fill="url(#l)" d="M209.616 367.232c.41-1.041.623-1.999.705-2.884 3.319-1.623 8.448-3.237 15.029-2.491 11.711 1.327 15.529-6.286 14.464-12.743 2.925.582 5.925.918 8.973.983-1.607 5.18-5.335 11.481-13.947 14.095-15.776 4.777-21.7 7.367-22.2 14.734 0 0-5.9-4.343-3.024-11.694" transform="matrix(.18746 0 0 -.18746 -12.214 86.921)"/><path fill="url(#m)" d="m244.403 384.663.008-.008c.008 0 .016 0 .025-.009 0 0 .008 0 .016-.009.025-.007.049-.024.09-.04.057-.033.131-.066.221-.114 1.886-.952 10.35-5.631 7.49-11.22-3.204-6.284-2.384-8.743 3.008-12.226 5.187-3.352 4.565-7.916 2.499-11.505a51.67 51.67 0 0 0 5.286-1.066c.721 3.303.811 6.941.065 10.252-1.5 6.686-10.784 8.465-7.507 12.014 3.172 3.441 4.295 7.785 4.361 8.047-.164-.107-4.942-3.311-6.688 1.656-1.336 3.81-5.713 4.277-7.777 4.277-.67 0-1.097-.049-1.097-.049" transform="matrix(.18746 0 0 -.18746 -12.214 86.921)"/><path fill="url(#n)" d="M210.321 364.348c.467-5.392-4.286-8.031-4.286-8.031s14.119-7.006 24.322-3.081c5.155 1.982 7.924-.664 9.375-4.139.024.008.057.008.082.017l.139.025c-.098 3.679-4.532 8.759-10.866 6.064-7.064-3.024-19.257.557-18.127 3.171 1.066 2.483-.713 7.006-.885 7.441.124-.509.205-1 .246-1.467" transform="matrix(.18746 0 0 -.18746 -12.214 86.921)"/><path fill="url(#o)" d="m244.403 384.663.008-.008c.008 0 .016 0 .025-.009 0 0 .008 0 .016-.009.025-.007.049-.024.09-.04.057-.033.131-.066.221-.114 1-.566 3.656-2.459 2.647-6.376-1.228-4.778-8.473-8.875-3.146-13.382 3.753-3.18 7.039-2.557 9.079-4.647-.893 2.893-3.908 3.901-6.58 6.515-3.589 3.5-.926 1.721 2.557 7.351 2.335 3.778-.033 8.154-1.844 10.629a13.91 13.91 0 0 1-1.967.138c-.676 0-1.106-.048-1.106-.048" transform="matrix(.18746 0 0 -.18746 -12.214 86.921)"/><g clip-path="url(#p)" transform="matrix(.18746 0 0 -.18746 -12.214 86.921)"><g mask="url(#q)"><path fill="url(#r)" d="M267.332 266.118c-5.41-1.508-11.243-2.327-17.333-2.327-1.966 0-3.9.082-5.809.254 2.565-2.148 6.261-4.72 10.595-6.262 5.557-1.974 3.525-6.235-.614-10.471.73.057 1.459.139 2.18.229 23.658 2.999 42.145 22.592 43.424 46.758-3.976-13.087-16.333-23.683-32.443-28.181"/></g></g><g clip-path="url(#s)" transform="matrix(.18746 0 0 -.18746 -12.214 86.921)"><g mask="url(#t)"><path fill="url(#u)" d="M249.999 263.791c-1.966 0-3.9.082-5.809.254 2.565-2.148 6.261-4.72 10.595-6.262 5.557-1.974 3.525-6.235-.614-10.471.73.057 1.459.139 2.18.229 3.049 2.892 6.432 6.637 6.489 8.916.099 4.097-8.809 5.219-4.859 5.736 1.812.229 5.679 2.032 9.351 3.925-5.41-1.508-11.243-2.327-17.333-2.327"/></g></g><g clip-path="url(#v)" transform="matrix(.42885 0 0 -.42885 20.095 7.696)"><path fill="#58595b" fill-opacity="1" fill-rule="nonzero" d="M0 0c-24.344-11.351-34.877-40.29-23.525-64.634 11.351-24.345 40.289-34.878 64.635-23.525a48.394 48.394 0 0 1 20.419 17.866c-5.122-11.033-14.012-20.391-25.9-25.934-26.772-12.484-58.594-.902-71.078 25.874C-47.934-43.583-36.351-11.76-9.58.723 1.711 5.987 13.893 6.974 25.143 4.347 16.801 5.147 8.147 3.799 0 0"/></g><g clip-path="url(#w)" transform="matrix(.42885 0 0 -.42885 32.218 8.826)"><path fill="#2884c5" fill-opacity="1" fill-rule="nonzero" d="M0 0c-22.693 0-41.091-18.397-41.091-41.084 0-22.7 18.398-41.09 41.091-41.09a40.901 40.901 0 0 1 22.008 6.386 44.99 44.99 0 0 0-29.085-10.61c-24.956 0-45.184 20.229-45.184 45.188 0 24.95 20.228 45.184 45.184 45.184A45 45 0 0 0 20.798-5.65 40.901 40.901 0 0 1 0 0"/></g><g clip-path="url(#x)" transform="matrix(.42885 0 0 -.42885 41.12 14.353)"><path fill="#f8af3a" fill-opacity="1" fill-rule="nonzero" d="M0 0c-16.901 7.884-36.998.569-44.883-16.336-7.883-16.906-.569-37 16.336-44.883a33.589 33.589 0 0 1 18.615-2.889 37.024 37.024 0 0 0-25.353 2.198c-18.593 8.674-26.635 30.769-17.967 49.365C-44.583 6.047-22.484 14.088-3.889 5.421a37.011 37.011 0 0 0 17.424-16.858A33.658 33.658 0 0 1 0 0"/></g><g fill="#000" fill-rule="evenodd" stroke-width=".858" aria-label="Aqua9" font-family="Calibri" font-size="48.195" style="-inkscape-font-specification:&quot;Calibri, Normal&quot;"><path d="M95.284 37.73q.189.518.189.848.023.306-.165.47-.188.165-.635.212-.424.047-1.154.047t-1.176-.047q-.424-.023-.66-.094-.21-.094-.329-.235-.094-.141-.188-.353l-2.612-7.413h-12.66l-2.495 7.319q-.07.212-.188.376-.118.142-.353.26-.212.093-.636.14-.4.047-1.059.047-.682 0-1.13-.07-.423-.047-.611-.212-.165-.165-.165-.47.024-.33.212-.848L79.682 9.421q.094-.259.236-.424.164-.164.447-.258.306-.095.753-.118.47-.047 1.176-.047.753 0 1.248.047.494.023.8.118.306.094.47.282.165.165.26.423zM82.177 12.764h-.024L76.905 27.94h10.59zM118.064 46.98q0 .187-.118.329-.094.14-.306.235-.211.094-.588.141-.376.047-.941.047-.589 0-.965-.047-.353-.047-.588-.141-.236-.094-.33-.235-.07-.142-.07-.33V36.131q-.965.964-1.836 1.647-.87.659-1.718 1.082-.847.4-1.718.565-.847.188-1.765.188-2.306 0-3.93-.894-1.623-.918-2.659-2.447-1.012-1.553-1.482-3.624-.471-2.095-.471-4.4 0-2.73.588-4.92.589-2.211 1.742-3.764 1.176-1.554 2.87-2.377 1.719-.847 3.954-.847.941 0 1.765.211.824.189 1.624.636.823.423 1.647 1.13.847.682 1.836 1.647v-2.565q0-.212.094-.33.094-.141.306-.235.211-.094.541-.118.33-.047.824-.047.47 0 .8.047.33.024.517.118.212.094.283.235.094.118.094.33zm-3.906-23.298q-1.577-1.953-3.06-2.965-1.459-1.036-3.059-1.036-1.482 0-2.518.706-1.035.706-1.694 1.86-.636 1.152-.942 2.611-.282 1.46-.282 2.966 0 1.623.235 3.153.26 1.53.871 2.706.612 1.177 1.624 1.906 1.012.706 2.541.706.777 0 1.483-.212.73-.211 1.482-.706.754-.494 1.577-1.27.824-.8 1.742-1.953zM143.385 38.578q0 .188-.094.33-.07.117-.282.211-.212.094-.565.141-.33.047-.824.047-.541 0-.894-.047-.33-.047-.541-.14-.189-.095-.26-.213-.07-.14-.07-.33v-2.8q-1.812 2-3.577 2.919-1.765.917-3.577.917-2.118 0-3.577-.706-1.435-.706-2.33-1.906-.894-1.223-1.294-2.824-.376-1.623-.376-3.93V17.4q0-.189.07-.306.095-.142.33-.236.235-.117.612-.14.376-.048.941-.048t.941.047q.377.024.589.141.235.094.33.236.093.117.093.306v12.33q0 1.86.26 2.99.281 1.105.823 1.905.564.777 1.412 1.224.847.424 1.976.424 1.46 0 2.895-1.036 1.459-1.035 3.083-3.035V17.399q0-.189.07-.306.094-.142.33-.236.235-.117.588-.14.377-.048.965-.048.565 0 .941.047.377.024.589.141.211.094.305.236.118.117.118.306zM166.518 38.601q0 .283-.189.424-.188.141-.517.212-.33.07-.965.07-.612 0-.988-.07-.353-.07-.518-.212-.165-.141-.165-.424v-2.117q-1.388 1.482-3.106 2.306-1.695.823-3.6.823-1.672 0-3.036-.447-1.342-.423-2.307-1.247-.94-.824-1.482-2.024-.518-1.2-.518-2.73 0-1.788.73-3.106.73-1.318 2.094-2.188 1.365-.871 3.342-1.295 1.976-.447 4.447-.447h2.918v-1.647q0-1.224-.258-2.165-.26-.941-.848-1.553-.564-.636-1.482-.942-.918-.33-2.26-.33-1.435 0-2.588.354-1.13.33-2 .753-.847.4-1.436.753-.564.33-.847.33-.188 0-.33-.095-.14-.094-.258-.282-.094-.188-.141-.47-.047-.307-.047-.66 0-.588.07-.917.094-.353.4-.66.33-.305 1.106-.705.777-.424 1.789-.753 1.012-.353 2.212-.565 1.2-.235 2.424-.235 2.282 0 3.882.517 1.6.518 2.59 1.53.987.988 1.435 2.47.447 1.483.447 3.46zm-3.86-9.671h-3.318q-1.6 0-2.777.282-1.176.259-1.953.8-.776.518-1.153 1.27-.353.73-.353 1.695 0 1.647 1.036 2.636 1.059.965 2.941.965 1.53 0 2.824-.777 1.318-.777 2.753-2.377zM192.027 22.74q0 1.977-.235 4.001t-.8 3.906q-.565 1.86-1.53 3.507-.941 1.624-2.4 2.847-1.436 1.224-3.436 1.93-1.977.682-4.612.682-1.012 0-1.977-.14-.941-.118-1.718-.307-.753-.188-1.27-.4-.519-.212-.754-.423-.235-.212-.353-.565-.094-.377-.094-.989 0-.517.024-.823.047-.306.117-.47.07-.166.189-.213.14-.07.329-.07.259 0 .73.188.47.165 1.176.377.73.211 1.694.4.965.164 2.165.164 2.283 0 3.907-.87 1.647-.895 2.683-2.377 1.035-1.483 1.553-3.436.517-1.953.565-4.118-1.248.73-2.99 1.294-1.74.565-4 .565-2.541 0-4.283-.683-1.717-.706-2.776-1.906-1.036-1.2-1.507-2.847-.447-1.647-.447-3.6 0-2.024.589-3.836.588-1.836 1.835-3.224 1.247-1.389 3.177-2.213 1.93-.823 4.613-.823 1.906 0 3.365.494 1.482.47 2.565 1.388 1.082.895 1.835 2.189.753 1.27 1.2 2.895.471 1.623.66 3.53.211 1.882.211 3.976zm-4.118-.447q0-3.012-.4-5.06-.4-2.07-1.177-3.34-.776-1.272-1.906-1.836-1.13-.565-2.612-.565-1.53 0-2.612.565-1.083.54-1.789 1.482-.682.918-1.012 2.095-.329 1.176-.329 2.423 0 1.389.282 2.542.306 1.153.965 1.953.66.8 1.718 1.247 1.06.424 2.612.424 1.765 0 3.412-.518 1.648-.541 2.848-1.412z"/></g></svg>